<svg width="24" height="24" viewBox="0 0 24 24" fill="none" xmlns="http://www.w3.org/2000/svg">
<path fill-rule="evenodd" clip-rule="evenodd" d="M17.5 14.9998V15.9611L17.5484 15.9998H6.45156L6.5 15.9611V14.9998V8.99983C6.5 6.96378 7.78042 5.17775 10.4567 4.65273L10.6147 4.62967C11.3987 4.51456 12.1971 4.39735 13.5025 4.64483L13.5025 4.64485C16.2135 5.1587 17.5 6.95797 17.5 8.99983V14.9998ZM22 16.9998L20.75 15.9998L19.5 14.9998V8.99983C19.5 5.92983 17.4625 3.35983 13.875 2.67983C12.2353 2.36895 11.1595 2.52761 10.3305 2.64987L10.3304 2.64987C10.2602 2.66022 10.1918 2.67031 10.125 2.67983C6.55 3.35983 4.5 5.91983 4.5 8.99983V14.9998L3.25 15.9998L2 16.9998V17.9998H2.8H3.95156H4H20H20.0484H21.2H22V16.9998ZM16 19.9998H8V21.9998H16V19.9998Z" fill="#000" fill-opacity="0.92"/>
</svg>
